<?xml version="1.0" encoding="UTF-8"?>
<svg xmlns="http://www.w3.org/2000/svg" xmlns:xlink="http://www.w3.org/1999/xlink" width="27px" height="27px" viewBox="0 0 27 27" version="1.1">
<g id="surface1">
<path style=" stroke:none;fill-rule:nonzero;fill:rgb(100%,100%,100%);fill-opacity:1;" d="M 13.5 13.5 C 16.761719 13.5 19.40625 10.855469 19.40625 7.59375 C 19.40625 4.332031 16.761719 1.6875 13.5 1.6875 C 10.238281 1.6875 7.59375 4.332031 7.59375 7.59375 C 7.59375 10.855469 10.238281 13.5 13.5 13.5 Z M 13.5 3.375 C 15.828125 3.375 17.71875 5.265625 17.71875 7.59375 C 17.71875 9.921875 15.828125 11.8125 13.5 11.8125 C 11.171875 11.8125 9.28125 9.921875 9.28125 7.59375 C 9.28125 5.265625 11.171875 3.375 13.5 3.375 Z M 13.5 3.375 "/>
<path style=" stroke:none;fill-rule:nonzero;fill:rgb(100%,100%,100%);fill-opacity:1;" d="M 14.34375 15.1875 L 12.65625 15.1875 C 7.53125 15.1875 3.375 19.34375 3.375 24.46875 C 3.375 24.933594 3.753906 25.3125 4.21875 25.3125 L 22.78125 25.3125 C 23.246094 25.3125 23.625 24.933594 23.625 24.46875 C 23.625 19.34375 19.46875 15.1875 14.34375 15.1875 Z M 5.113281 23.625 C 5.542969 19.78125 8.789062 16.875 12.65625 16.875 L 14.34375 16.875 C 18.210938 16.875 21.457031 19.78125 21.886719 23.625 Z M 5.113281 23.625 "/>
</g>
</svg>
