<?xml version="1.0" encoding="UTF-8"?>
<svg xmlns="http://www.w3.org/2000/svg" xmlns:xlink="http://www.w3.org/1999/xlink" width="27px" height="27px" viewBox="0 0 27 27" version="1.1">
<g id="surface1">
<path style=" stroke:none;fill-rule:nonzero;fill:rgb(100%,100%,100%);fill-opacity:1;" d="M 23.933594 4.566406 C 21.246094 1.90625 16.917969 1.90625 14.230469 4.566406 L 13.5 5.277344 L 12.78125 4.566406 C 10.09375 1.90625 5.769531 1.90625 3.078125 4.566406 C 0.402344 7.246094 0.402344 11.585938 3.078125 14.269531 L 13.054688 24.265625 C 13.300781 24.511719 13.699219 24.511719 13.945312 24.265625 L 23.933594 14.28125 C 26.597656 11.589844 26.597656 7.253906 23.933594 4.566406 Z M 23.039062 13.386719 L 13.5 22.921875 L 3.960938 13.386719 C 2.90625 12.335938 2.316406 10.910156 2.320312 9.421875 C 2.335938 6.332031 4.839844 3.832031 7.925781 3.816406 C 9.414062 3.8125 10.839844 4.402344 11.886719 5.460938 L 13.054688 6.621094 C 13.171875 6.738281 13.332031 6.804688 13.5 6.804688 C 13.667969 6.804688 13.828125 6.738281 13.945312 6.621094 L 15.113281 5.460938 C 17.316406 3.355469 20.792969 3.394531 22.949219 5.546875 C 25.101562 7.703125 25.144531 11.183594 23.039062 13.386719 Z M 23.039062 13.386719 "/>
</g>
</svg>
